<svg version="1.1" width="16" height="16" xmlns="http://www.w3.org/2000/svg">
  <path d="M4 0 h1 v1 h-1 z M5 0 h1 v1 h-1 z M6 0 h1 v1 h-1 z M7 0 h1 v1 h-1 z M8 0 h1 v1 h-1 z M9 0 h1 v1 h-1 z M10 0 h1 v1 h-1 z M11 0 h1 v1 h-1 z
M2 1 h1 v1 h-1 z M3 1 h1 v1 h-1 z M12 1 h1 v1 h-1 z M13 1 h1 v1 h-1 z 
M1 2 h1 v1 h-1 z M14 2 h1 v1 h-1 z 
M1 3 h1 v1 h-1 z M14 3 h1 v1 h-1 z
M0 4 h1 v1 h-1 z M15 4 h1 v1 h-1 z
M0 5 h1 v1 h-1 z M15 5 h1 v1 h-1 z
M0 6 h1 v1 h-1 z M15 6 h1 v1 h-1 z
M0 7 h1 v1 h-1 z M15 7 h1 v1 h-1 z
M0 8 h1 v1 h-1 z M15 8 h1 v1 h-1 z
M0 9 h1 v1 h-1 z M15 9 h1 v1 h-1 z
M0 10 h1 v1 h-1 z M15 10 h1 v1 h-1 z
M0 11 h1 v1 h-1 z M15 11 h1 v1 h-1 z
M1 12 h1 v1 h-1 z M14 12 h1 v1 h-1 z 
M1 13 h1 v1 h-1 z M14 13 h1 v1 h-1 z
M2 14 h1 v1 h-1 z M3 14 h1 v1 h-1 z M12 14 h1 v1 h-1 z M13 14 h1 v1 h-1 z 
M4 15 h1 v1 h-1 z M5 15 h1 v1 h-1 z M6 15 h1 v1 h-1 z M7 15 h1 v1 h-1 z M8 15 h1 v1 h-1 z M9 15 h1 v1 h-1 z M10 15 h1 v1 h-1 z M11 15 h1 v1 h-1 z
" fill="rgb(20,27,27)" />
  <path d="M4 1 h1 v1 h-1 z M5 1 h1 v1 h-1 z M6 1 h1 v1 h-1 z M7 1 h1 v1 h-1 z M8 1 h1 v1 h-1 z M9 1 h1 v1 h-1 z M10 1 h1 v1 h-1 z M11 1 h1 v1 h-1 z
M2 2 h1 v1 h-1 z M3 2 h1 v1 h-1 z M4 2 h1 v1 h-1 z M5 2 h1 v1 h-1 z M6 2 h1 v1 h-1 z M7 2 h1 v1 h-1 z M8 2 h1 v1 h-1 z M9 2 h1 v1 h-1 z M10 2 h1 v1 h-1 z M11 2 h1 v1 h-1 z M12 2 h1 v1 h-1 z M13 2 h1 v1 h-1 z 
M2 3 h1 v1 h-1 z 
M3 3 h1 v1 h-1 z 
M4 3 h1 v1 h-1 z 
M11 3 h1 v1 h-1 z 
M12 3 h1 v1 h-1 z 
M13 3 h1 v1 h-1 z 
M1 4 h1 v1 h-1 z M2 4 h1 v1 h-1 z M3 4 h1 v1 h-1 z M12 4 h1 v1 h-1 z M13 4 h1 v1 h-1 z M14 4 h1 v1 h-1 z 
M1 5 h1 v1 h-1 z M2 5 h1 v1 h-1 z  M13 5 h1 v1 h-1 z M14 5 h1 v1 h-1 z
M1 6 h1 v1 h-1 z M2 6 h1 v1 h-1 z  M13 6 h1 v1 h-1 z M14 6 h1 v1 h-1 z
M1 7 h1 v1 h-1 z M2 7 h1 v1 h-1 z  M13 7 h1 v1 h-1 z M14 7 h1 v1 h-1 z
M1 8 h1 v1 h-1 z M2 8 h1 v1 h-1 z  M13 8 h1 v1 h-1 z M14 8 h1 v1 h-1 z
M1 9 h1 v1 h-1 z M2 9 h1 v1 h-1 z  M13 9 h1 v1 h-1 z M14 9 h1 v1 h-1 z
M1 10 h1 v1 h-1 z M2 10 h1 v1 h-1 z M13 10 h1 v1 h-1 z M14 10 h1 v1 h-1 z
M1 11 h1 v1 h-1 z M2 11 h1 v1 h-1 z M3 11 h1 v1 h-1 z M12 11 h1 v1 h-1 z M13 11 h1 v1 h-1 z M14 11 h1 v1 h-1 z
M2 12 h1 v1 h-1 z 
M3 12 h1 v1 h-1 z 
M4 12 h1 v1 h-1 z 
M11 12 h1 v1 h-1 z 
M12 12 h1 v1 h-1 z 
M13 12 h1 v1 h-1 z 
M2 13 h1 v1 h-1 z M3 13 h1 v1 h-1 z M4 13 h1 v1 h-1 z M5 13 h1 v1 h-1 z M6 13 h1 v1 h-1 z M7 13 h1 v1 h-1 z M8 13 h1 v1 h-1 z M9 13 h1 v1 h-1 z M10 13 h1 v1 h-1 z M11 13 h1 v1 h-1 z M12 13 h1 v1 h-1 z M13 13 h1 v1 h-1 z
M4 14 h1 v1 h-1 z M5 14 h1 v1 h-1 z M6 14 h1 v1 h-1 z M7 14 h1 v1 h-1 z M8 14 h1 v1 h-1 z M9 14 h1 v1 h-1 z M10 14 h1 v1 h-1 z M11 14 h1 v1 h-1 z
   " fill="rgb(134,83,66)" />
  <path d="M5 3 h1 v1 h-1 z M6 3 h1 v1 h-1 z M7 3 h1 v1 h-1 z M8 3 h1 v1 h-1 z M9 3 h1 v1 h-1 z M10 3 h1 v1 h-1 z
M4 4 h1 v1 h-1 z M5 4 h1 v1 h-1 z M6 4 h1 v1 h-1 z M7 4 h1 v1 h-1 z M8 4 h1 v1 h-1 z M9 4 h1 v1 h-1 z M10 4 h1 v1 h-1 z M11 4 h1 v1 h-1 z
M3 5 h1 v1 h-1 z
M4 5 h1 v1 h-1 z
M5 5 h1 v1 h-1 z
M10 5 h1 v1 h-1 z
M11 5 h1 v1 h-1 z
M12 5 h1 v1 h-1 z
M3 6 h1 v1 h-1 z M4 6 h1 v1 h-1 z M11 6 h1 v1 h-1 z M12 6 h1 v1 h-1 z
M3 7 h1 v1 h-1 z M4 7 h1 v1 h-1 z M11 7 h1 v1 h-1 z M12 7 h1 v1 h-1 z
M3 8 h1 v1 h-1 z M4 8 h1 v1 h-1 z M11 8 h1 v1 h-1 z M12 8 h1 v1 h-1 z
M3 9 h1 v1 h-1 z M4 9 h1 v1 h-1 z M11 9 h1 v1 h-1 z M12 9 h1 v1 h-1 z
M3 10 h1 v1 h-1 z M4 10 h1 v1 h-1 z M5 10 h1 v1 h-1 z M10 10 h1 v1 h-1 z M11 10 h1 v1 h-1 z M12 10 h1 v1 h-1 z
M4 11 h1 v1 h-1 z M5 11 h1 v1 h-1 z M6 11 h1 v1 h-1 z M7 11 h1 v1 h-1 z M8 11 h1 v1 h-1 z M9 11 h1 v1 h-1 z M10 11 h1 v1 h-1 z M11 11 h1 v1 h-1 z
M5 12 h1 v1 h-1 z M6 12 h1 v1 h-1 z M7 12 h1 v1 h-1 z M8 12 h1 v1 h-1 z M9 12 h1 v1 h-1 z M10 12 h1 v1 h-1 z
" fill="rgb(235,172,98)" />
  <path d="
  M6 5 h1 v1 h-1 z M7 5 h1 v1 h-1 z M8 5 h1 v1 h-1 z M9 5 h1 v1 h-1 z
  M5 6 h1 v1 h-1 z M6 6 h1 v1 h-1 z M7 6 h1 v1 h-1 z M8 6 h1 v1 h-1 z M9 6 h1 v1 h-1 z M10 6 h1 v1 h-1 z
  M5 7 h1 v1 h-1 z M6 7 h1 v1 h-1 z M9 7 h1 v1 h-1 z M10 7 h1 v1 h-1 z
  M5 8 h1 v1 h-1 z M6 8 h1 v1 h-1 z M9 8 h1 v1 h-1 z M10 8 h1 v1 h-1 z
  M5 9 h1 v1 h-1 z M6 9 h1 v1 h-1 z M7 9 h1 v1 h-1 z M8 9 h1 v1 h-1 z M9 9 h1 v1 h-1 z M10 9 h1 v1 h-1 z
  M6 10 h1 v1 h-1 z M7 10 h1 v1 h-1 z M8 10 h1 v1 h-1 z M9 10 h1 v1 h-1 z
  " fill="rgb(191,133,97)" />
</svg>